<svg width="48" height="46" viewBox="0 0 48 46" fill="none" xmlns="http://www.w3.org/2000/svg">
<mask id="mask0_363_801" style="mask-type:alpha" maskUnits="userSpaceOnUse" x="7" y="0" width="33" height="21">
<rect x="7.00098" width="32" height="21" fill="#C4C4C4"/>
</mask>
<g mask="url(#mask0_363_801)">
<path d="M38.4482 5.60821C38.4482 5.60821 38.5159 3.20817 36.1159 2.65655C33.4061 2.03718 30.8319 1.45653 29.5061 1.13716C27.3383 0.633931 26.1963 2.79203 26.1963 2.79203L22.4221 19.1955C22.4221 19.1955 22.2382 20.1826 23.1866 20.4052L33.4932 22.7762C33.4932 22.7762 34.4803 22.9601 34.7029 22.0214C34.9255 21.0827 38.4482 5.60821 38.4482 5.60821Z" fill="#FFCD00" stroke="#5B1A0D" stroke-miterlimit="10"/>
<path d="M30.8513 14.0084C32.7327 14.0084 34.2578 12.4832 34.2578 10.6018C34.2578 8.72048 32.7327 7.19534 30.8513 7.19534C28.97 7.19534 27.4448 8.72048 27.4448 10.6018C27.4448 12.4832 28.97 14.0084 30.8513 14.0084Z" fill="#002E6D"/>
<path d="M36.1518 10.6886L26.0273 8.38019L25.5411 10.5126L35.6656 12.821L36.1518 10.6886Z" fill="#002E6D"/>
<path d="M30.8512 15.7987C33.7213 15.7987 36.048 13.472 36.048 10.6018C36.048 7.73167 33.7213 5.40495 30.8512 5.40495C27.981 5.40495 25.6543 7.73167 25.6543 10.6018C25.6543 13.472 27.981 15.7987 30.8512 15.7987Z" stroke="#002E6D" stroke-width="0.5" stroke-miterlimit="10"/>
<path d="M30.2056 6.08577C30.3399 5.49691 29.7179 4.85291 28.8163 4.64736C27.9148 4.44182 27.0751 4.75255 26.9409 5.34141C26.8066 5.93027 27.4286 6.57427 28.3301 6.77982C29.2317 6.98537 30.0713 6.67463 30.2056 6.08577Z" fill="#002E6D"/>
<path d="M30.3861 3.934C30.3861 3.934 29.9119 1.57267 27.4538 1.58235C24.6763 1.58235 22.0344 1.59203 20.6698 1.59203C18.444 1.59203 17.8149 3.94368 17.8149 3.95336L17.8343 20.7827C17.8343 20.7827 17.8827 21.7891 18.8601 21.7891L29.428 21.7795C29.428 21.7795 30.4345 21.7408 30.4345 20.773C30.4345 19.8052 30.3861 3.934 30.3861 3.934Z" fill="#FFCD00" stroke="#5B1A0D" stroke-miterlimit="10"/>
<path d="M24.1052 13.9116C25.9866 13.9116 27.5117 12.3864 27.5117 10.5051C27.5117 8.62372 25.9866 7.09857 24.1052 7.09857C22.2239 7.09857 20.6987 8.62372 20.6987 10.5051C20.6987 12.3864 22.2239 13.9116 24.1052 13.9116Z" fill="#00833E"/>
<path d="M29.2893 9.39708L18.9053 9.426L18.9114 11.6131L29.2954 11.5842L29.2893 9.39708Z" fill="#00833E"/>
<path d="M24.1051 15.702C26.9752 15.702 29.3019 13.3752 29.3019 10.5051C29.3019 7.63495 26.9752 5.30824 24.1051 5.30824C21.2349 5.30824 18.9082 7.63495 18.9082 10.5051C18.9082 13.3752 21.2349 15.702 24.1051 15.702Z" stroke="#00833E" stroke-width="0.5" stroke-miterlimit="10"/>
<path d="M20.7887 7.35024C21.7134 7.34766 22.4616 6.85597 22.4599 6.25201C22.4582 5.64805 21.7073 5.16053 20.7826 5.16311C19.858 5.16568 19.1098 5.65738 19.1114 6.26134C19.1131 6.8653 19.8641 7.35282 20.7887 7.35024Z" fill="#002E6D"/>
<path d="M21.831 2.66621C21.831 2.66621 20.7859 0.498429 18.4052 1.10812C15.7148 1.79523 13.1599 2.46298 11.8341 2.79202C9.67602 3.34364 9.64699 5.78239 9.65666 5.78239L13.8471 22.0891C13.8471 22.0891 14.1374 23.0472 15.0858 22.8053L25.3247 20.173C25.3247 20.173 26.2924 19.8826 26.0505 18.9536C25.7989 18.0245 21.831 2.66621 21.831 2.66621Z" fill="#FFCD00" stroke="#5B1A0D" stroke-miterlimit="10"/>
<path d="M17.3699 13.989C19.2513 13.989 20.7764 12.4638 20.7764 10.5825C20.7764 8.70112 19.2513 7.17597 17.3699 7.17597C15.4885 7.17597 13.9634 8.70112 13.9634 10.5825C13.9634 12.4638 15.4885 13.989 17.3699 13.989Z" fill="#5B1A0D"/>
<path d="M22.1168 8.2244L12.064 10.8246L12.6116 12.9419L22.6644 10.3418L22.1168 8.2244Z" fill="#5B1A0D"/>
<path d="M17.3697 15.7793C20.2399 15.7793 22.5666 13.4526 22.5666 10.5824C22.5666 7.7123 20.2399 5.38558 17.3697 5.38558C14.4996 5.38558 12.1729 7.7123 12.1729 10.5824C12.1729 13.4526 14.4996 15.7793 17.3697 15.7793Z" stroke="#5B1A0D" stroke-width="0.5" stroke-miterlimit="10"/>
<path d="M13.375 8.3514C14.2702 8.11987 14.8732 7.45819 14.722 6.8735C14.5708 6.2888 13.7225 6.00251 12.8274 6.23404C11.9322 6.46557 11.3291 7.12725 11.4804 7.71195C11.6316 8.29664 12.4799 8.58294 13.375 8.3514Z" fill="#002E6D"/>
</g>
<path d="M20.4081 40.4592C20.4358 40.4592 20.4543 40.4592 20.482 40.4592C21.2485 40.4222 21.8303 39.7666 21.7933 39.0094L21.4239 31.6217C21.387 30.8552 20.7313 30.2735 19.9741 30.3104C19.2076 30.3473 18.6259 31.003 18.6628 31.7602L19.0322 39.1479C19.0599 39.8866 19.6694 40.4592 20.4081 40.4592Z" fill="#E63000"/>
<path d="M26.8076 40.4592C26.8353 40.4592 26.8538 40.4592 26.8815 40.4592C27.611 40.4592 28.2297 39.8866 28.2667 39.1386L28.6361 31.751C28.673 30.9845 28.082 30.3381 27.3248 30.3012C26.5583 30.2642 25.9119 30.8552 25.8749 31.6125L25.5056 39.0001C25.4501 39.7666 26.0412 40.4222 26.8076 40.4592Z" fill="#E63000"/>
<path d="M12.5776 39.2772C12.6792 39.9605 13.2702 40.4592 13.9444 40.4592C14.009 40.4592 14.0829 40.4499 14.1475 40.4407C14.9048 40.3299 15.4219 39.6188 15.3111 38.8616L14.2029 31.474C14.0921 30.7167 13.381 30.1996 12.6238 30.3104C11.8666 30.4212 11.3494 31.1323 11.4603 31.8895L12.5776 39.2772Z" fill="#E63000"/>
<path d="M33.1338 40.4407C33.2077 40.4499 33.2723 40.4592 33.337 40.4592C34.0111 40.4592 34.6021 39.9697 34.7037 39.2772L35.8118 31.8895C35.9226 31.1323 35.4055 30.4304 34.6483 30.3104C33.891 30.1996 33.1892 30.7167 33.0692 31.474L31.961 38.8616C31.8502 39.6281 32.3766 40.3299 33.1338 40.4407Z" fill="#E63000"/>
<path d="M43.1254 19.2197H42.5159L47.1517 9.18172C47.4749 8.48913 47.1701 7.66725 46.4775 7.34404C45.7849 7.02083 44.9631 7.32557 44.6399 8.01816L39.4685 19.2197H7.81244L2.64108 8.01816C2.31787 7.32557 1.496 7.02083 0.803407 7.34404C0.110815 7.65802 -0.193926 8.48913 0.129284 9.18172L4.76503 19.2197H4.15555C1.86538 19.2197 0 21.0851 0 23.3752C0 25.3145 1.33901 26.949 3.13052 27.4015L6.63965 41.4473C7.30454 44.1253 9.70552 45.9907 12.4667 45.9907H34.8143C37.5754 45.9907 39.9672 44.1253 40.6413 41.4473L44.1504 27.4015C45.9512 26.949 47.2809 25.3145 47.2809 23.3752C47.2809 21.0851 45.4156 19.2197 43.1254 19.2197ZM37.9448 40.7824C37.5847 42.223 36.2918 43.2295 34.805 43.2295H12.4667C10.9799 43.2295 9.68705 42.223 9.3269 40.7824L6.02093 27.5308H41.26L37.9448 40.7824ZM43.1254 24.7604H4.15555C3.38908 24.7604 2.77037 24.1417 2.77037 23.3752C2.77037 22.6088 3.38908 21.99 4.15555 21.99H43.1254C43.8919 21.99 44.5106 22.6088 44.5106 23.3752C44.5106 24.1417 43.8919 24.7604 43.1254 24.7604Z" fill="#5B1A0D"/>
</svg>
