<svg width="74" height="45" viewBox="0 0 74 45" fill="none" xmlns="http://www.w3.org/2000/svg">
<path d="M67.295 0H10.4071C9.25401 0 8.229 0.89688 8.229 2.17814V4.74065V13.8376V41.6409H69.4731V13.7095V4.61253V2.05001C69.4731 0.89688 68.4481 0 67.295 0Z" fill="#571D00"/>
<path d="M72.5732 41.5128H5.00098C4.44869 41.5128 4.00098 41.9605 4.00098 42.5128V43.9722C4.00098 44.5244 4.44869 44.9722 5.00098 44.9722H72.5732C73.1255 44.9722 73.5732 44.5244 73.5732 43.9722V42.5128C73.5732 41.9605 73.1255 41.5128 72.5732 41.5128Z" fill="#571D00"/>
<path d="M66.001 2.97217H12.001C11.4487 2.97217 11.001 3.41988 11.001 3.97217V37.9722C11.001 38.5245 11.4487 38.9722 12.001 38.9722H66.001C66.5533 38.9722 67.001 38.5245 67.001 37.9722V3.97217C67.001 3.41988 66.5533 2.97217 66.001 2.97217Z" fill="#FFD300"/>
<path d="M53.3292 17.5533H22.9634V25.6252H53.3292V17.5533Z" fill="#E30613"/>
<path d="M45.1294 21.0126L57.6857 26.2658L53.8419 28.0595L57.6857 31.3908L55.3795 33.6971L51.6638 29.8533L50.1263 33.6971L45.1294 21.0126Z" fill="white" stroke="#571D00" stroke-width="0.5" stroke-miterlimit="10"/>
<path d="M17.6503 5.97217H0.000976562V33.9722H17.6503V5.97217Z" fill="white"/>
<path d="M2.12451 9.02431H11.5463" stroke="#571D00" stroke-width="0.5" stroke-miterlimit="10"/>
<path d="M2.12402 11.9437H11.5458" stroke="#571D00" stroke-width="0.5" stroke-miterlimit="10"/>
<path d="M2.12402 14.7305H9.82071" stroke="#571D00" stroke-width="0.5" stroke-miterlimit="10"/>
<path d="M2.12402 17.6499H11.5458" stroke="#571D00" stroke-width="0.5" stroke-miterlimit="10"/>
<path d="M2.12402 20.5693H7.43208" stroke="#571D00" stroke-width="0.5" stroke-miterlimit="10"/>
<path d="M2.12402 23.4888H11.5458" stroke="#571D00" stroke-width="0.5" stroke-miterlimit="10"/>
<path d="M2.12402 26.4082H9.82071" stroke="#571D00" stroke-width="0.5" stroke-miterlimit="10"/>
<path d="M2.12402 31.0528H5.17616" stroke="#571D00" stroke-width="0.5" stroke-miterlimit="10"/>
<path d="M13.271 9.02432H15.5269" stroke="#571D00" stroke-width="0.5" stroke-miterlimit="10"/>
<path d="M13.271 11.9437H15.5269" stroke="#571D00" stroke-width="0.5" stroke-miterlimit="10"/>
<path d="M13.271 14.7305H15.5269" stroke="#571D00" stroke-width="0.5" stroke-miterlimit="10"/>
<path d="M13.271 17.6499H15.5269" stroke="#571D00" stroke-width="0.5" stroke-miterlimit="10"/>
<path d="M13.271 20.5693H15.5269" stroke="#571D00" stroke-width="0.5" stroke-miterlimit="10"/>
<path d="M13.271 23.4888H15.5269" stroke="#571D00" stroke-width="0.5" stroke-miterlimit="10"/>
<path d="M13.271 26.4082H15.5269" stroke="#571D00" stroke-width="0.5" stroke-miterlimit="10"/>
<path d="M13.271 31.0528H15.5269" stroke="#571D00" stroke-width="0.5" stroke-miterlimit="10"/>
</svg>
