<svg width="30" height="45" viewBox="0 0 30 45" fill="none" xmlns="http://www.w3.org/2000/svg">
<path d="M25.9014 0H3.95508C1.77539 0 0 1.77539 0 3.95508V41.0449C0 43.2246 1.77539 45 3.95508 45H25.9014C28.0811 45 29.8564 43.2246 29.8564 41.0449V3.95508C29.8564 1.77539 28.0811 0 25.9014 0ZM3.95508 2.63672H25.9014C26.6309 2.63672 27.2197 3.22559 27.2197 3.95508V31.8164H2.63672V3.95508C2.63672 3.22559 3.22559 2.63672 3.95508 2.63672ZM25.9014 42.3633H3.95508C3.22559 42.3633 2.63672 41.7744 2.63672 41.0449V34.4531H27.2197V41.0449C27.2197 41.7744 26.6221 42.3633 25.9014 42.3633Z" fill="#5A1404"/>
<path d="M13.6055 37.0898H16.2422V39.7266H13.6055V37.0898Z" fill="#5A1404"/>
<path d="M22.7285 12.665H20.9531C21.0674 12.3135 21.1289 11.9355 21.1289 11.54C21.1289 9.46582 19.4414 7.77832 17.3672 7.77832C16.4355 7.77832 15.583 8.12109 14.9238 8.68359C14.2646 8.12109 13.4121 7.77832 12.4805 7.77832C10.4062 7.77832 8.71875 9.46582 8.71875 11.54C8.71875 11.9268 8.78027 12.3047 8.89453 12.665H7.11914V26.6748H22.7285V12.665ZM17.3672 10.415C17.9824 10.415 18.4922 10.916 18.4922 11.54C18.4922 12.1641 17.9912 12.665 17.3672 12.665H16.2422V11.54C16.2422 10.916 16.752 10.415 17.3672 10.415ZM11.3643 11.54C11.3643 10.9248 11.8652 10.415 12.4893 10.415C13.1133 10.415 13.6143 10.916 13.6143 11.54V12.665H12.4893C11.8652 12.665 11.3643 12.1553 11.3643 11.54ZM9.75586 15.3018H13.6055V24.0381H9.75586V15.3018ZM20.0918 24.0381H16.2422V15.3018H20.0918V24.0381Z" fill="#E63000"/>
</svg>
