<svg width="43" height="45" viewBox="0 0 43 45" fill="none" xmlns="http://www.w3.org/2000/svg">
<path d="M39.3233 27.6556H28.8116V22.8775C28.8116 21.3008 27.5215 20.0107 25.9447 20.0107H16.3885C14.8118 20.0107 13.5217 21.3008 13.5217 22.8775V23.8331H3.00992C1.43315 23.8331 0.143066 25.1232 0.143066 26.7V43.9011C0.143066 44.4267 0.573094 44.8567 1.09868 44.8567H41.2346C41.7602 44.8567 42.1902 44.4267 42.1902 43.9011V30.5225C42.1902 28.9457 40.9001 27.6556 39.3233 27.6556ZM26.9003 42.9455H15.4329V40.5564C15.4329 40.0308 15.0029 39.6008 14.4773 39.6008C13.9517 39.6008 13.5217 40.0308 13.5217 40.5564V42.9455H2.0543V26.7C2.0543 26.1744 2.48433 25.7444 3.00992 25.7444H13.5217V42.1045C13.5217 42.6301 13.9517 42.3625 14.4773 42.3625C15.0029 42.3625 15.4329 41.9325 15.4329 41.4069V22.8775C15.4329 22.3519 15.863 21.9219 16.3885 21.9219H25.9447C26.4703 21.9219 26.9003 22.3519 26.9003 22.8775V42.9455ZM40.2789 42.9455H28.8116V29.5668H39.3233C39.8489 29.5668 40.2789 29.9969 40.2789 30.5225V42.9455Z" fill="#5B1A0D"/>
<path d="M41.2348 45H1.09896C0.49692 45 0 44.5031 0 43.9011V26.7C0 25.0372 1.34742 23.6898 3.01019 23.6898H13.3786V22.8775C13.3786 21.2147 14.726 19.8673 16.3888 19.8673H25.945C27.6077 19.8673 28.9552 21.2147 28.9552 22.8775V27.5122H39.3236C40.9864 27.5122 42.3338 28.8597 42.3338 30.5224V43.9011C42.3338 44.5031 41.8369 45 41.2348 45ZM3.01019 23.9765C1.50987 23.9765 0.286685 25.1996 0.286685 26.7V43.9011C0.286685 44.3502 0.649819 44.7133 1.09896 44.7133H41.2348C41.684 44.7133 42.0471 44.3502 42.0471 43.9011V30.5224C42.0471 29.0221 40.8239 27.7989 39.3236 27.7989H28.6685V22.8775C28.6685 21.3772 27.4453 20.154 25.945 20.154H16.3888C14.8885 20.154 13.6653 21.3772 13.6653 22.8775V23.9765H3.01019ZM40.4226 43.0888H28.6685V29.4235H39.3236C39.9256 29.4235 40.4226 29.9204 40.4226 30.5224V43.0888ZM28.9552 42.8021H40.1359V30.5224C40.1359 30.0733 39.7727 29.7102 39.3236 29.7102H28.9552V42.8021ZM27.0439 43.0888H15.2899V42.1427C15.0892 42.3625 14.8025 42.5059 14.4776 42.5059C14.3438 42.5059 14.2005 42.525 14.0858 42.5441C13.9329 42.5727 13.7895 42.5919 13.6653 42.5632V43.0888H1.91123V26.7C1.91123 26.0979 2.40815 25.601 3.01019 25.601H13.6653V39.8206C13.866 39.6008 14.1527 39.4574 14.4776 39.4574C14.8025 39.4574 15.0892 39.6008 15.2899 39.8206V22.8775C15.2899 22.2755 15.7868 21.7785 16.3888 21.7785H25.945C26.547 21.7785 27.0439 22.2755 27.0439 22.8775V43.0888ZM15.5765 42.8021H26.7573V22.8775C26.7573 22.4284 26.3941 22.0652 25.945 22.0652H16.3888C15.9397 22.0652 15.5765 22.4284 15.5765 22.8775V42.8021ZM2.19792 42.8021H13.3786V25.8877H3.01019C2.56105 25.8877 2.19792 26.2508 2.19792 26.7V42.8021ZM13.6653 40.5564V42.1045C13.6653 42.2287 13.694 42.2574 13.7035 42.267C13.7418 42.3052 13.9042 42.2765 14.0476 42.2574C14.1813 42.2383 14.3247 42.2192 14.4871 42.2192C14.9363 42.2192 15.2994 41.856 15.2994 41.4069V40.5564C15.2994 40.1073 14.9363 39.7441 14.4871 39.7441C14.0284 39.7441 13.6653 40.1073 13.6653 40.5564Z" fill="#5B1A0D"/>
<path d="M22.2277 35.2023H22.1226V28.513C22.1226 28.169 21.9411 27.8536 21.6448 27.6816C21.3486 27.5096 20.9854 27.5096 20.6892 27.6816L19.6285 28.2932C19.1698 28.5608 19.0169 29.1437 19.2749 29.6024C19.466 29.9369 19.8387 30.1184 20.2018 30.0707V35.2023H20.0967C19.5711 35.2023 19.1411 35.6323 19.1411 36.1579C19.1411 36.6835 19.5711 37.1135 20.0967 37.1135H22.2182C22.7438 37.1135 23.1738 36.6835 23.1738 36.1579C23.1834 35.6323 22.7533 35.2023 22.2277 35.2023Z" fill="#E63000"/>
<path d="M24.607 6.31681H24.8872C27.7004 6.31681 30 4.4208 30 2.07981V1.00605C30 0.454656 29.4514 0 28.786 0H13.214C12.537 0 12 0.454656 12 1.00605V2.07981C12 4.41112 14.2879 6.31681 17.1128 6.31681H17.393C17.7782 7.24547 18.6654 7.99033 19.786 8.29988V9.68319H18.4086C17.7315 9.68319 17.1946 10.1378 17.1946 10.6892V14.994C17.1946 15.5453 17.7432 16 18.4086 16H23.6031C24.2685 16 24.8171 15.5453 24.8171 14.994V10.6892C24.8171 10.1378 24.2685 9.68319 23.6031 9.68319H22.2257V8.29988C23.3463 7.98065 24.2335 7.24547 24.607 6.31681ZM22.3774 13.9879H19.6109V11.6953H22.3774V13.9879ZM27.572 2.07981C27.572 3.30834 26.3696 4.30472 24.8872 4.30472H24.8054V2.01209H27.572V2.07981ZM14.428 2.07981V2.01209H17.1946V4.29504H17.1128C15.6304 4.29504 14.428 3.29867 14.428 2.07981ZM19.6226 2.01209H22.3891V5.31076C22.3891 5.93954 21.7704 6.45224 21.0117 6.45224C20.2529 6.45224 19.6342 5.93954 19.6342 5.31076V2.01209H19.6226Z" fill="white"/>
</svg>
